<?xml version="1.0" encoding="iso-8859-1"?>
<!-- Generator: Adobe Illustrator 18.0.0, SVG Export Plug-In . SVG Version: 6.00 Build 0)  -->
<!DOCTYPE svg PUBLIC "-//W3C//DTD SVG 1.1//EN" "http://www.w3.org/Graphics/SVG/1.1/DTD/svg11.dtd">
<svg version="1.1" id="Capa_1" xmlns="http://www.w3.org/2000/svg" xmlns:xlink="http://www.w3.org/1999/xlink" x="0px" y="0px"
	 viewBox="0 0 486.77 486.77" style="enable-background:new 0 0 486.77 486.77;" xml:space="preserve">
<g id="XMLID_753_">
	<path id="XMLID_756_" d="M482.482,175.267c-3.43-4.96-9.055-7.939-15.083-7.939h-45.714c4.887-14.165,3.873-29.893-3.29-43.606
		c-7.731-14.824-21.517-25.186-37.6-28.577V55.411c0-14.347-5.61-28.893-17.217-39.962C353.628,5.934,340.208,0,325.384,0
		c-35.327,0-7.368,0-34.085,0c-14.821,0-28.244,5.934-38.195,15.448c-10.663,10.165-17.215,24.189-17.215,39.962v39.733
		c-16.083,3.392-29.868,13.753-37.601,28.577c-7.163,13.714-8.176,29.441-3.287,43.606h-45.454l-41.245-45.817
		c-4.628-5.141-11.211-8.082-18.136-8.082l-64.688-0.008c-13.477,0-24.402,10.926-24.402,24.402
		c0,13.477,10.925,24.396,24.402,24.396h53.819l33.275,36.983l70.512,183.346c2.718,7.075,9.507,11.733,17.081,11.733h194.012
		c7.58,0,14.371-4.658,17.081-11.733l73.205-190.343C486.643,186.57,485.89,180.241,482.482,175.267z M237.141,144.003
		c2.013-3.834,5.942-6.219,10.253-6.219h0.014h32.311V55.411c0-6.385,5.197-11.568,11.565-11.568h0.016h34.085h0.015
		c6.371,0,11.568,5.183,11.568,11.568v82.372h32.309h0.016c4.31,0,8.24,2.385,10.252,6.219c1.996,3.834,1.712,8.421-0.776,11.971
		l-60.926,87.348c-2.171,3.098-5.721,4.944-9.491,4.944h-0.009h-0.008c-3.77,0-7.319-1.846-9.49-4.944l-60.925-87.348
		C235.431,152.424,235.145,147.837,237.141,144.003z"/>
	<path id="XMLID_755_" d="M228.577,413.565c-20.219,0-36.603,16.383-36.603,36.602c0,20.211,16.384,36.604,36.603,36.604
		c20.21,0,36.596-16.393,36.596-36.604C265.172,429.948,248.787,413.565,228.577,413.565z"/>
	<path id="XMLID_754_" d="M363.081,413.565c-20.212,0-36.603,16.383-36.603,36.602c0,20.211,16.391,36.604,36.603,36.604
		c20.217,0,36.594-16.393,36.594-36.604C399.675,429.948,383.298,413.565,363.081,413.565z"/>
</g>
<g>
</g>
<g>
</g>
<g>
</g>
<g>
</g>
<g>
</g>
<g>
</g>
<g>
</g>
<g>
</g>
<g>
</g>
<g>
</g>
<g>
</g>
<g>
</g>
<g>
</g>
<g>
</g>
<g>
</g>
</svg>
