<?xml version="1.0" encoding="iso-8859-1"?>
<!-- Generator: Adobe Illustrator 19.0.0, SVG Export Plug-In . SVG Version: 6.00 Build 0)  -->
<svg version="1.1" id="Capa_1" xmlns="http://www.w3.org/2000/svg" xmlns:xlink="http://www.w3.org/1999/xlink" x="0px" y="0px"
	 viewBox="0 0 59 59" style="enable-background:new 0 0 59 59;" xml:space="preserve">
<g>
	<g>
		<path d="M58.086,17.711C57.708,17.259,57.154,17,56.566,17H43.5v-3.091C43.5,6.239,37.26,0,29.591,0
			C21.821,0,15.5,6.321,15.5,14.091V17H2.435c-0.589,0-1.143,0.26-1.52,0.712s-0.533,1.044-0.429,1.613L1.81,27l0,0l2.069,12H3.88
			l1.38,8H5.257l1.556,9.02C7.184,57.746,8.735,59,10.5,59h38c1.767,0,3.317-1.254,3.687-2.981l0.006-0.035
			c0-0.002,0.001-0.003,0.001-0.004l3.84-22.272L57.192,27l0,0l1.322-7.666C58.619,18.755,58.463,18.163,58.086,17.711z
			 M17.5,14.091C17.5,7.424,22.924,2,29.591,2C36.158,2,41.5,7.343,41.5,13.909V17h-3v1c0,4.937-4.038,8.952-9,8.952
			s-9-4.016-9-8.952v-1h-3V14.091z M54.706,29.646L53.438,37H49.5h-6h-6h-6h-6h-6h-6h-6H5.563l-0.546-3.165
			C5.301,33.659,5.5,33.359,5.5,33c0-0.479-0.343-0.86-0.793-0.958L4.183,29H7.5h6h6h6h6h6h6h6h5.317L54.706,29.646z M2.435,19
			h16.111c0.303,3.316,2.103,6.2,4.712,8H3.819L2.435,19z M5.896,39h47.197l-1.379,8H7.281L5.896,39z M10.5,57
			c-0.829,0-1.557-0.589-1.724-1.36l-0.983-5.699C8.2,49.814,8.5,49.448,8.5,49h4c0,0.552,0.448,1,1,1s1-0.448,1-1h4
			c0,0.552,0.448,1,1,1s1-0.448,1-1h4c0,0.552,0.448,1,1,1s1-0.448,1-1h4c0,0.552,0.448,1,1,1c0.552,0,1-0.448,1-1h4
			c0,0.552,0.448,1,1,1s1-0.448,1-1h4c0,0.552,0.448,1,1,1s1-0.448,1-1h4c0,0.552,0.448,1,1,1s1-0.448,1-1h0.869l-0.963,5.587
			C50.248,54.242,49.904,54,49.5,54c-0.552,0-1,0.448-1,1s0.448,1,1,1c0.265,0,0.502-0.107,0.68-0.275
			c-0.022,0.074-0.054,0.141-0.085,0.211c-0.034,0.076-0.052,0.161-0.096,0.231c-0.063,0.1-0.152,0.177-0.232,0.262
			c-0.055,0.058-0.097,0.128-0.159,0.178c-0.103,0.083-0.225,0.136-0.344,0.195c-0.058,0.029-0.108,0.073-0.169,0.095
			C48.907,56.963,48.707,57,48.5,57H10.5z M35.742,27c2.609-1.8,4.41-4.684,4.712-8h16.087l-1.379,8H35.742z"/>
		<circle cx="10.5" cy="52" r="1"/>
		<circle cx="13.5" cy="55" r="1"/>
		<circle cx="16.5" cy="52" r="1"/>
		<circle cx="22.5" cy="52" r="1"/>
		<circle cx="19.5" cy="55" r="1"/>
		<circle cx="25.5" cy="55" r="1"/>
		<circle cx="28.5" cy="52" r="1"/>
		<circle cx="34.5" cy="52" r="1"/>
		<circle cx="31.5" cy="55" r="1"/>
		<circle cx="37.5" cy="55" r="1"/>
		<circle cx="40.5" cy="52" r="1"/>
		<circle cx="46.5" cy="52" r="1"/>
		<circle cx="43.5" cy="55" r="1"/>
		<circle cx="7.5" cy="30" r="1"/>
		<circle cx="13.5" cy="30" r="1"/>
		<circle cx="19.5" cy="30" r="1"/>
		<circle cx="25.5" cy="30" r="1"/>
		<circle cx="31.5" cy="30" r="1"/>
		<circle cx="37.5" cy="30" r="1"/>
		<circle cx="43.5" cy="30" r="1"/>
		<circle cx="49.5" cy="30" r="1"/>
		<circle cx="10.5" cy="33" r="1"/>
		<circle cx="7.5" cy="36" r="1"/>
		<circle cx="13.5" cy="36" r="1"/>
		<circle cx="16.5" cy="33" r="1"/>
		<circle cx="22.5" cy="33" r="1"/>
		<circle cx="19.5" cy="36" r="1"/>
		<circle cx="25.5" cy="36" r="1"/>
		<circle cx="28.5" cy="33" r="1"/>
		<circle cx="34.5" cy="33" r="1"/>
		<circle cx="31.5" cy="36" r="1"/>
		<circle cx="37.5" cy="36" r="1"/>
		<circle cx="40.5" cy="33" r="1"/>
		<circle cx="46.5" cy="33" r="1"/>
		<circle cx="43.5" cy="36" r="1"/>
		<circle cx="49.5" cy="36" r="1"/>
		<circle cx="52.5" cy="33" r="1"/>
	</g>
</g>
<g>
</g>
<g>
</g>
<g>
</g>
<g>
</g>
<g>
</g>
<g>
</g>
<g>
</g>
<g>
</g>
<g>
</g>
<g>
</g>
<g>
</g>
<g>
</g>
<g>
</g>
<g>
</g>
<g>
</g>
</svg>
