<?xml version="1.0" encoding="iso-8859-1"?>
<!-- Generator: Adobe Illustrator 18.0.0, SVG Export Plug-In . SVG Version: 6.00 Build 0)  -->
<!DOCTYPE svg PUBLIC "-//W3C//DTD SVG 1.1//EN" "http://www.w3.org/Graphics/SVG/1.1/DTD/svg11.dtd">
<svg version="1.1" id="Capa_1" xmlns="http://www.w3.org/2000/svg" xmlns:xlink="http://www.w3.org/1999/xlink" x="0px" y="0px"
	 viewBox="0 0 512 512" style="enable-background:new 0 0 512 512;" xml:space="preserve">
<g>
	<circle cx="257" cy="288" r="32"/>
	<path d="M353,416c17.672,0,31-14.328,31-32V32c0-17.674-13.328-32-31-32H160c-17.672,0-32,14.326-32,32v352
		c0,17.672,14.328,32,32,32h64v32h-64c-17.672,0-32,14.328-32,32s14.328,32,32,32h192c17.672,0,32-14.328,32-32s-14.328-32-32-32
		h-64v-32H353z M257,32c35.348,0,64,28.652,64,64c0,35.346-28.652,64-64,64c-35.346,0-64-28.654-64-64C193,60.652,221.654,32,257,32
		z M161,288c0-53.02,42.98-96,96-96s96,42.98,96,96s-42.98,96-96,96S161,341.02,161,288z"/>
	<circle cx="257" cy="96" r="16"/>
</g>
<g>
</g>
<g>
</g>
<g>
</g>
<g>
</g>
<g>
</g>
<g>
</g>
<g>
</g>
<g>
</g>
<g>
</g>
<g>
</g>
<g>
</g>
<g>
</g>
<g>
</g>
<g>
</g>
<g>
</g>
</svg>
